<?xml version="1.0" encoding="UTF-8" standalone="no"?>
<!-- Created with Inkscape (http://www.inkscape.org/) -->

<svg
   xmlns:dc="http://purl.org/dc/elements/1.1/"
   xmlns:cc="http://creativecommons.org/ns#"
   xmlns:rdf="http://www.w3.org/1999/02/22-rdf-syntax-ns#"
   xmlns:svg="http://www.w3.org/2000/svg"
   xmlns="http://www.w3.org/2000/svg"
   xmlns:sodipodi="http://sodipodi.sourceforge.net/DTD/sodipodi-0.dtd"
   xmlns:inkscape="http://www.inkscape.org/namespaces/inkscape"
   width="262.31854"
   height="231.79941"
   id="svg2"
   version="1.1"
   inkscape:version="0.48.3.1 r9886"
   sodipodi:docname="logovorschlag_md.svg"
   inkscape:export-filename="/home/tux/Netz39/penguineer_freifunk-statistik-panel/mock-up/mock-up.png"
   inkscape:export-xdpi="89.999725"
   inkscape:export-ydpi="89.999725">
  <defs
     id="defs4" />
  <sodipodi:namedview
     id="base"
     pagecolor="#ffffff"
     bordercolor="#666666"
     borderopacity="1.0"
     inkscape:pageopacity="1"
     inkscape:pageshadow="2"
     inkscape:zoom="2.8"
     inkscape:cx="62.541214"
     inkscape:cy="89.817608"
     inkscape:document-units="mm"
     inkscape:current-layer="layer1"
     showgrid="false"
     inkscape:window-width="1920"
     inkscape:window-height="1025"
     inkscape:window-x="-2"
     inkscape:window-y="-3"
     inkscape:window-maximized="1"
     fit-margin-top="0"
     fit-margin-left="0"
     fit-margin-right="0"
     fit-margin-bottom="0"
     units="mm" />
  <metadata
     id="metadata7">
    <rdf:RDF>
      <cc:Work
         rdf:about="">
        <dc:format>image/svg+xml</dc:format>
        <dc:type
           rdf:resource="http://purl.org/dc/dcmitype/StillImage" />
        <dc:title />
      </cc:Work>
    </rdf:RDF>
  </metadata>
  <g
     inkscape:label="Layer 1"
     inkscape:groupmode="layer"
     id="layer1"
     transform="translate(-86.993289,-368.53034)">
    <text
       xml:space="preserve"
       style="font-size:48px;font-style:normal;font-variant:normal;font-weight:normal;font-stretch:normal;line-height:125%;letter-spacing:0px;word-spacing:0px;fill:#000000;fill-opacity:1;stroke:none;font-family:cmr10;-inkscape-font-specification:cmr10"
       x="457.59909"
       y="301.64767"
       id="text4120"
       sodipodi:linespacing="125%"
       transform="translate(0,308.2677)"><tspan
         sodipodi:role="line"
         id="tspan4122"
         x="457.59909"
         y="301.64767" /></text>
    <g
       id="g4472">
      <g
         transform="matrix(0.68580014,0,0,0.68580014,25.065536,250.22877)"
         id="g3208">
        <path
           id="path3210"
           d="m 90.3,509.2 v -50.4 h 10.8 v 4.2 h 0.2 c 0.9,-1.7 2,-3 3.3,-3.9 1.3,-0.9 2.9,-1.3 4.7,-1.3 1.7,0 3.1,0.4 4.2,1.3 1.1,0.9 2,2.2 2.5,3.9 h 0.2 c 1,-1.7 2.1,-3 3.5,-3.9 1.3,-0.9 2.8,-1.3 4.6,-1.3 2.4,0 4.2,0.7 5.4,2.1 1.2,1.4 1.7,3.6 1.7,6.5 v 42.7 h -11.1 v -39 c 0,-1.2 -0.1,-2 -0.4,-2.4 -0.3,-0.4 -0.8,-0.6 -1.5,-0.6 -0.7,0 -1.2,0.2 -1.5,0.7 -0.3,0.5 -0.5,1.2 -0.5,2.3 v 39 h -10.9 v -39 c 0,-1.2 -0.2,-2 -0.5,-2.4 -0.3,-0.4 -0.8,-0.6 -1.6,-0.6 -0.7,0 -1.2,0.2 -1.5,0.7 -0.3,0.5 -0.5,1.2 -0.5,2.3 v 39 H 90.3 z"
           inkscape:connector-curvature="0" />
        <path
           id="path3212"
           d="M 160.9,509.2 H 150 v -4.4 h -0.2 c -0.7,1.8 -1.8,3.2 -3.1,4.2 -1.3,1 -2.9,1.4 -4.8,1.4 -2.4,0 -4.2,-0.7 -5.4,-2.1 -1.2,-1.4 -1.8,-3.5 -1.8,-6.4 v -35.5 c 0,-2.9 0.6,-5 1.8,-6.4 1.2,-1.4 3,-2.1 5.4,-2.1 1.8,0 3.3,0.4 4.6,1.3 1.3,0.9 2.3,2.1 3.2,3.9 h 0.2 V 446.3 H 161 v 62.9 z m -15.1,-11 c 0,1.2 0.1,2 0.4,2.4 0.3,0.4 0.8,0.7 1.6,0.7 0.7,0 1.2,-0.3 1.5,-0.8 0.3,-0.5 0.5,-1.3 0.5,-2.3 v -28 c 0,-1 -0.2,-1.8 -0.5,-2.3 -0.3,-0.5 -0.8,-0.7 -1.5,-0.7 -0.7,0 -1.3,0.2 -1.6,0.6 -0.3,0.4 -0.4,1.2 -0.4,2.4 v 28 z"
           inkscape:connector-curvature="0" />
        <path
           id="path3214"
           d="m 165.3,509.2 v -12.8 h 11.6 v 12.8 h -11.6 z"
           inkscape:connector-curvature="0" />
        <path
           id="path3216"
           d="m 182.9,509.2 v -42.4 h -2.7 v -8 h 2.7 V 454 c 0,-2.4 0.7,-4.4 2.2,-5.7 1.5,-1.4 3.5,-2.1 6.2,-2.1 h 6.3 v 7.9 c -1.3,0 -2.2,0.1 -2.8,0.4 -0.5,0.3 -0.8,0.8 -0.8,1.6 v 2.7 h 3.6 v 8 H 194 v 42.4 h -11.1 z"
           inkscape:connector-curvature="0" />
        <path
           id="path3218"
           d="m 199.6,509.2 v -50.4 h 10.9 v 4.2 h 0.2 c 0.9,-1.8 2.1,-3.1 3.4,-3.9 1.3,-0.8 2.8,-1.3 4.6,-1.3 2.4,0 4.2,0.7 5.4,2.2 1.2,1.4 1.8,3.6 1.8,6.4 V 486 h -11.2 v -15.8 c 0,-1.2 -0.1,-2 -0.4,-2.4 -0.3,-0.4 -0.8,-0.6 -1.6,-0.6 -0.7,0 -1.2,0.2 -1.5,0.7 -0.3,0.5 -0.5,1.2 -0.5,2.3 v 39 h -11.1 z"
           inkscape:connector-curvature="0" />
        <path
           id="path3220"
           d="m 241.1,499.1 c 0,1.1 0.2,1.9 0.5,2.4 0.3,0.5 0.8,0.7 1.5,0.7 0.7,0 1.2,-0.2 1.5,-0.7 0.3,-0.5 0.5,-1.3 0.5,-2.4 v -9.4 h 11.1 v 9.3 c 0,3.6 -1.1,6.5 -3.4,8.5 -2.3,2 -5.5,3 -9.7,3 -4.7,0 -8.1,-1.1 -10.1,-3.2 -2,-2.2 -3,-5.9 -3,-11.1 V 472 c 0,-5.3 1,-9 3,-11.1 2,-2.1 5.3,-3.2 10,-3.2 4.1,0 7.4,1 9.7,2.9 2.3,1.9 3.5,4.6 3.5,8 v 17.1 h -15.1 v 13.4 z m 0,-30.5 v 9.5 h 4 v -9.5 c 0,-1.1 -0.2,-1.9 -0.5,-2.4 -0.3,-0.5 -0.8,-0.7 -1.5,-0.7 -0.7,0 -1.2,0.2 -1.5,0.7 -0.3,0.5 -0.5,1.3 -0.5,2.4 z"
           inkscape:connector-curvature="0" />
        <path
           id="path3222"
           d="m 259.7,455.9 v -9.6 h 11.1 v 9.6 h -11.1 z m 0,53.3 v -50.4 h 11.1 v 50.4 h -11.1 z"
           inkscape:connector-curvature="0" />
        <path
           id="path3224"
           d="m 276.2,509.2 v -42.4 h -2.7 v -8 h 2.7 V 454 c 0,-2.4 0.7,-4.4 2.2,-5.7 1.5,-1.4 3.5,-2.1 6.2,-2.1 h 6.3 v 7.9 c -1.3,0 -2.2,0.1 -2.8,0.4 -0.5,0.3 -0.8,0.8 -0.8,1.6 v 2.7 h 3.6 v 8 h -3.6 v 42.4 h -11.1 z"
           inkscape:connector-curvature="0" />
        <path
           id="path3226"
           d="m 319.2,458.9 v 50.4 h -10.9 v -4.2 H 308 c -0.9,1.7 -2,3 -3.3,3.8 -1.3,0.8 -2.8,1.2 -4.5,1.2 -2.4,0 -4.2,-0.7 -5.4,-2.1 -1.2,-1.4 -1.8,-3.5 -1.8,-6.3 v -42.8 h 11 V 498 c 0,1.1 0.2,1.9 0.5,2.3 0.3,0.4 0.9,0.6 1.6,0.6 0.7,0 1.2,-0.2 1.5,-0.7 0.3,-0.5 0.4,-1.2 0.4,-2.3 v -39.1 h 11.2 z"
           inkscape:connector-curvature="0" />
        <path
           id="path3228"
           d="m 322.7,509.2 v -50.4 h 10.9 v 4.2 h 0.2 c 0.9,-1.8 2.1,-3.1 3.4,-3.9 1.3,-0.8 2.8,-1.3 4.6,-1.3 2.4,0 4.2,0.7 5.4,2.2 1.2,1.4 1.8,3.6 1.8,6.4 v 42.7 h -11.2 v -39 c 0,-1.2 -0.1,-2 -0.4,-2.4 -0.3,-0.4 -0.8,-0.6 -1.6,-0.6 -0.7,0 -1.2,0.2 -1.5,0.7 -0.3,0.5 -0.5,1.2 -0.5,2.3 v 39 h -11.1 z"
           inkscape:connector-curvature="0" />
        <path
           id="path3230"
           d="m 352.5,509.2 v -62.9 h 11.1 v 34.5 h 0.2 l 4.7,-21.9 h 11.4 l -5.5,21.8 5.5,28.6 h -11.7 l -4.4,-26.4 h -0.2 v 26.4 h -11.1 z"
           inkscape:connector-curvature="0" />
        <path
           id="path3232"
           d="m 382,509.2 v -12.8 h 11.6 v 12.8 H 382 z"
           inkscape:connector-curvature="0" />
        <path
           id="path3234"
           d="m 397.9,509.2 v -50.4 h 10.9 v 4.2 h 0.2 c 0.9,-1.8 2.1,-3.1 3.4,-3.9 1.3,-0.8 2.8,-1.3 4.6,-1.3 2.4,0 4.2,0.7 5.4,2.2 1.2,1.4 1.8,3.6 1.8,6.4 v 42.7 H 413 v -39 c 0,-1.2 -0.1,-2 -0.4,-2.4 -0.3,-0.4 -0.8,-0.6 -1.6,-0.6 -0.7,0 -1.2,0.2 -1.5,0.7 -0.3,0.5 -0.5,1.2 -0.5,2.3 v 39 h -11.1 z"
           inkscape:connector-curvature="0" />
        <path
           id="path3236"
           d="m 438.7,499.1 c 0,1.1 0.2,1.9 0.5,2.4 0.3,0.5 0.8,0.7 1.5,0.7 0.7,0 1.2,-0.2 1.5,-0.7 0.3,-0.5 0.5,-1.3 0.5,-2.4 v -9.4 h 11.1 v 9.3 c 0,3.6 -1.1,6.5 -3.4,8.5 -2.3,2 -5.5,3 -9.7,3 -4.7,0 -8.1,-1.1 -10.1,-3.2 -2,-2.2 -3,-5.9 -3,-11.1 V 472 c 0,-5.3 1,-9 3,-11.1 2,-2.1 5.3,-3.2 10,-3.2 4.1,0 7.4,1 9.7,2.9 2.3,1.9 3.5,4.6 3.5,8 v 17.1 h -15.1 v 13.4 z m 0,-30.5 v 9.5 h 4 v -9.5 c 0,-1.1 -0.2,-1.9 -0.5,-2.4 -0.3,-0.5 -0.8,-0.7 -1.5,-0.7 -0.7,0 -1.2,0.2 -1.5,0.7 -0.3,0.5 -0.5,1.3 -0.5,2.4 z"
           inkscape:connector-curvature="0" />
        <path
           id="path3238"
           d="m 455.5,466.9 v -8.1 h 2.8 v -9.3 h 11.2 v 9.3 h 3.2 v 8.1 h -3.2 v 30.6 c 0,1.6 0.2,2.6 0.6,3 0.4,0.4 1.1,0.6 2.3,0.6 h 0.4 v 8.1 h -7 c -2.7,0 -4.6,-0.6 -5.7,-1.9 -1.1,-1.2 -1.7,-3.6 -1.7,-7 v -33.5 h -2.9 z"
           inkscape:connector-curvature="0" />
      </g>
      <g
         id="g4461">
        <circle
           id="circle4343"
           stroke-miterlimit="4"
           transform="matrix(2.5704933,0,0,2.620752,61.849807,341.35541)"
           r="22"
           cy="54"
           cx="36"
           sodipodi:cx="36"
           sodipodi:cy="54"
           sodipodi:rx="22"
           sodipodi:ry="22"
           style="fill:none;stroke:#de2c68;stroke-width:0.65844703;stroke-miterlimit:4;stroke-opacity:1;stroke-dasharray:none"
           d="M 58,54 C 58,66.150264 48.150264,76 36,76 23.849736,76 14,66.150264 14,54 14,41.849736 23.849736,32 36,32 c 12.150264,0 22,9.849736 22,22 z" />
        <circle
           id="circle4345"
           stroke-miterlimit="4"
           transform="matrix(2.7747799,0,0,2.822233,49.759399,329.62545)"
           r="22"
           cy="44"
           cx="74"
           sodipodi:cx="74"
           sodipodi:cy="44"
           sodipodi:rx="22"
           sodipodi:ry="22"
           style="fill:#ffffff;fill-opacity:1;stroke:#de2c68;stroke-width:0.61070478;stroke-miterlimit:4;stroke-opacity:1;stroke-dasharray:none"
           d="M 96,44 C 96,56.150264 86.150264,66 74,66 61.849736,66 52,56.150264 52,44 52,31.849736 61.849736,22 74,22 c 12.150264,0 22,9.849736 22,22 z" />
        <circle
           id="circle4347"
           stroke-miterlimit="4"
           transform="matrix(2.7540424,0,0,2.7810364,51.033551,331.43779)"
           r="29"
           cy="44"
           cx="74"
           sodipodi:cx="74"
           sodipodi:cy="44"
           sodipodi:rx="29"
           sodipodi:ry="29"
           style="fill:none;stroke:#de2c68;stroke-width:3.34091377;stroke-miterlimit:4;stroke-opacity:1;stroke-dasharray:none"
           d="M 103,44 C 103,60.016258 90.016258,73 74,73 57.983742,73 45,60.016258 45,44 45,27.983742 57.983742,15 74,15 c 16.016258,0 29,12.983742 29,29 z" />
        <polygon
           id="polygon4349"
           transform="matrix(2.5213514,0,0,2.3898906,62.583858,349.94787)"
           points="30,52 26,56 31,56 37,50 31,44 26,44 30,48 22,48 22,52 "
           style="fill:#ffcc33;fill-opacity:1" />
        <g
           id="g4455">
          <path
             d="m 218.63471,422.73557 0,5.83664 26.50334,0 c -5.34415,5.3526 -10.69589,10.69755 -16.05643,16.03372 l 7.06301,0 c 11.28063,0 20.41688,9.15896 20.41688,20.43959 0,11.28063 -9.13625,20.41688 -20.41688,20.41688 -11.28062,0 -20.43959,-9.13625 -20.43959,-20.41688 l -5.83664,0 c 0,14.50365 11.77258,26.25353 26.27623,26.25353 14.50365,0 26.25352,-11.74988 26.25352,-26.25353 0,-12.33529 -8.4987,-22.70482 -19.96267,-25.52678 l 16.80589,-16.78317 z"
             id="path4996-4-0-4-8-9-7-2-6-0-9-9-2-3"
             style="color:#000000;fill:#ffcc33;fill-opacity:1;fill-rule:evenodd;stroke:none;stroke-width:19.99983214999999959;marker:none;visibility:visible;display:inline;overflow:visible;enable-background:accumulate"
             inkscape:connector-curvature="0"
             sodipodi:nodetypes="ccccsssccssccc" />
          <path
             inkscape:connector-curvature="0"
             style="color:#000000;fill:#ffcc33;fill-opacity:1;fill-rule:evenodd;stroke:none;stroke-width:20;marker:none;visibility:visible;display:inline;overflow:visible;enable-background:accumulate"
             id="path4996-4-0-4-2-1-9-8-5-8-9-5"
             d="m 236.12193,481.41096 c 8.86334,0 16.05643,-7.1931 16.05643,-16.05644 0,-6.80402 -4.24045,-12.6128 -10.2198,-14.94361 l 0,6.58609 c 2.64951,1.84073 4.38316,4.88577 4.38316,8.35752 0,5.64031 -4.57948,10.2198 -10.21979,10.2198 -5.64031,0 -10.19709,-4.57949 -10.19709,-10.2198 0,-3.46612 1.72482,-6.51582 4.36045,-8.35752 l 0,-6.58609 c -5.97312,2.33081 -10.19709,8.13959 -10.19709,14.94361 0,8.86334 7.17039,16.05644 16.03373,16.05644 z" />
          <path
             inkscape:connector-curvature="0"
             style="color:#000000;fill:#ffcc33;fill-opacity:1;fill-rule:evenodd;stroke:none;stroke-width:20;marker:none;visibility:visible;display:inline;overflow:visible;enable-background:accumulate"
             id="rect5023-1-6-7-7-5-2-9-1-8-8-7"
             d="m 236.12193,468.2842 c 1.61152,0 2.92967,-1.31816 2.92967,-2.92968 l 0,-17.4872 -5.83664,0 0,17.4872 c 0,1.61152 1.29545,2.92968 2.90697,2.92968 z" />
          <path
             d="m 272.89048,415.78611 c -3.20957,0.0305 -5.81295,0.47859 -6.44983,0.863 -1.27379,0.76889 -1.57467,2.61242 -1.18095,3.04323 0.39371,0.43067 6.41117,4.29551 9.03884,5.56411 7.07526,3.41604 -0.72224,16.48775 -6.8132,14.14874 -4.31669,-1.65763 -9.21362,-6.59445 -10.03811,-6.63151 -0.82448,-0.0364 -1.88655,0.51955 -2.15751,1.95311 -0.27093,1.43358 1.68737,8.35545 6.6088,13.73995 5.9057,6.46153 15.10259,-0.67783 15.10259,5.22345 l 0,27.41177 a 7.3014765,7.3014765 0 0 0 14.60295,0 l 0,-35.01984 0,-8.17584 c 0,-3.06641 3.75951,-15.36196 -8.67547,-20.50772 -3.01443,-1.24734 -6.82855,-1.64295 -10.03811,-1.61245 z"
             id="path5018-1-3-2-1-4-7-5-6-8"
             style="fill:#ffcc33;fill-opacity:1;stroke:none"
             inkscape:connector-curvature="0" />
        </g>
      </g>
    </g>
  </g>
</svg>
