<?xml version="1.0" encoding="utf-8"?>
<!-- Generator: Adobe Illustrator 17.1.0, SVG Export Plug-In . SVG Version: 6.00 Build 0)  -->
<!DOCTYPE svg PUBLIC "-//W3C//DTD SVG 1.1//EN" "http://www.w3.org/Graphics/SVG/1.1/DTD/svg11.dtd">
<svg version="1.1" id="Ebene_1" xmlns="http://www.w3.org/2000/svg" xmlns:xlink="http://www.w3.org/1999/xlink" x="0px" y="0px"
	 viewBox="0 0 566.9 566.9" enable-background="new 0 0 566.9 566.9" xml:space="preserve">
<g>
	<path fill="#FFFFFF" d="M65.7,329.5c0-62.5,50.7-113.2,113.2-113.2c62.5,0,113.2,50.7,113.2,113.2s-50.7,113.2-113.2,113.2
		C116.4,442.7,65.7,392,65.7,329.5L65.7,329.5z"/>
	<path fill="#FFFFFF" d="M172.7,284.7c0-91,73.4-164.7,164-164.7c90.6,0,164,73.7,164,164.7s-73.4,164.7-164,164.7
		C246.1,449.4,172.7,375.6,172.7,284.7L172.7,284.7z"/>
	<path fill="none" stroke="#DC0067" stroke-width="4.4452" stroke-miterlimit="3.8637" d="M90.3,329.5c0-49.1,39.7-89,88.6-89
		s88.6,39.8,88.6,89c0,49.1-39.7,89-88.6,89S90.3,378.6,90.3,329.5L90.3,329.5z"/>
	<polygon fill="#FFB400" points="292.5,309.3 330,271.6 365.4,271.6 340.3,296.7 390.4,296.7 390.4,321.8 340.3,321.8 365.4,347 
		330,347 292.5,309.3 	"/>
	<polygon fill="#FFB400" points="181.2,309.3 159.1,287 138.2,287 153,301.9 123.4,301.9 123.4,316.7 153,316.7 138.2,331.5 
		159.1,331.5 181.2,309.3 	"/>
	<path fill="none" stroke="#DC0067" stroke-width="26.7006" stroke-miterlimit="3.8637" d="M212.6,284.7
		c0-68.8,55.5-124.6,124.1-124.6c68.5,0,124.1,55.8,124.1,124.6c0,68.8-55.5,124.6-124.1,124.6C268.2,409.3,212.6,353.5,212.6,284.7
		L212.6,284.7z"/>
	<path fill="none" stroke="#DC0067" stroke-width="4.4452" stroke-miterlimit="3.8637" d="M241.6,284.7c0-52.7,42.6-95.5,95.1-95.5
		c52.5,0,95.1,42.7,95.1,95.5s-42.6,95.5-95.1,95.5C284.2,380.2,241.6,337.4,241.6,284.7L241.6,284.7z"/>
</g>
<g>
	<path d="M90.3,509.2v-50.4h10.8v4.2h0.2c0.9-1.7,2-3,3.3-3.9c1.3-0.9,2.9-1.3,4.7-1.3c1.7,0,3.1,0.4,4.2,1.3s2,2.2,2.5,3.9h0.2
		c1-1.7,2.1-3,3.5-3.9c1.3-0.9,2.8-1.3,4.6-1.3c2.4,0,4.2,0.7,5.4,2.1c1.2,1.4,1.7,3.6,1.7,6.5v42.7h-11.1v-39c0-1.2-0.1-2-0.4-2.4
		c-0.3-0.4-0.8-0.6-1.5-0.6c-0.7,0-1.2,0.2-1.5,0.7c-0.3,0.5-0.5,1.2-0.5,2.3v39h-10.9v-39c0-1.2-0.2-2-0.5-2.4
		c-0.3-0.4-0.8-0.6-1.6-0.6c-0.7,0-1.2,0.2-1.5,0.7c-0.3,0.5-0.5,1.2-0.5,2.3v39H90.3z"/>
	<path d="M160.9,509.2H150v-4.4h-0.2c-0.7,1.8-1.8,3.2-3.1,4.2s-2.9,1.4-4.8,1.4c-2.4,0-4.2-0.7-5.4-2.1c-1.2-1.4-1.8-3.5-1.8-6.4
		v-35.5c0-2.9,0.6-5,1.8-6.4c1.2-1.4,3-2.1,5.4-2.1c1.8,0,3.3,0.4,4.6,1.3s2.3,2.1,3.2,3.9h0.2v-16.8h11.1V509.2z M145.8,498.2
		c0,1.2,0.1,2,0.4,2.4c0.3,0.4,0.8,0.7,1.6,0.7c0.7,0,1.2-0.3,1.5-0.8c0.3-0.5,0.5-1.3,0.5-2.3v-28c0-1-0.2-1.8-0.5-2.3
		c-0.3-0.5-0.8-0.7-1.5-0.7c-0.7,0-1.3,0.2-1.6,0.6c-0.3,0.4-0.4,1.2-0.4,2.4V498.2z"/>
	<path d="M165.3,509.2v-12.8h11.6v12.8H165.3z"/>
	<path d="M182.9,509.2v-42.4h-2.7v-8h2.7v-4.8c0-2.4,0.7-4.4,2.2-5.7c1.5-1.4,3.5-2.1,6.2-2.1h6.3v7.9c-1.3,0-2.2,0.1-2.8,0.4
		c-0.5,0.3-0.8,0.8-0.8,1.6v2.7h3.6v8H194v42.4H182.9z"/>
	<path d="M199.6,509.2v-50.4h10.9v4.2h0.2c0.9-1.8,2.1-3.1,3.4-3.9c1.3-0.8,2.8-1.3,4.6-1.3c2.4,0,4.2,0.7,5.4,2.2
		c1.2,1.4,1.8,3.6,1.8,6.4V486h-11.2v-15.8c0-1.2-0.1-2-0.4-2.4c-0.3-0.4-0.8-0.6-1.6-0.6c-0.7,0-1.2,0.2-1.5,0.7
		c-0.3,0.5-0.5,1.2-0.5,2.3v39H199.6z"/>
	<path d="M241.1,499.1c0,1.1,0.2,1.9,0.5,2.4c0.3,0.5,0.8,0.7,1.5,0.7c0.7,0,1.2-0.2,1.5-0.7c0.3-0.5,0.5-1.3,0.5-2.4v-9.4h11.1v9.3
		c0,3.6-1.1,6.5-3.4,8.5c-2.3,2-5.5,3-9.7,3c-4.7,0-8.1-1.1-10.1-3.2c-2-2.2-3-5.9-3-11.1V472c0-5.3,1-9,3-11.1
		c2-2.1,5.3-3.2,10-3.2c4.1,0,7.4,1,9.7,2.9c2.3,1.9,3.5,4.6,3.5,8v17.1h-15.1V499.1z M241.1,468.6v9.5h4v-9.5
		c0-1.1-0.2-1.9-0.5-2.4c-0.3-0.5-0.8-0.7-1.5-0.7c-0.7,0-1.2,0.2-1.5,0.7C241.3,466.7,241.1,467.5,241.1,468.6z"/>
	<path d="M259.7,455.9v-9.6h11.1v9.6H259.7z M259.7,509.2v-50.4h11.1v50.4H259.7z"/>
	<path d="M276.2,509.2v-42.4h-2.7v-8h2.7v-4.8c0-2.4,0.7-4.4,2.2-5.7c1.5-1.4,3.5-2.1,6.2-2.1h6.3v7.9c-1.3,0-2.2,0.1-2.8,0.4
		c-0.5,0.3-0.8,0.8-0.8,1.6v2.7h3.6v8h-3.6v42.4H276.2z"/>
	<path d="M319.2,458.9v50.4h-10.9v-4.2H308c-0.9,1.7-2,3-3.3,3.8c-1.3,0.8-2.8,1.2-4.5,1.2c-2.4,0-4.2-0.7-5.4-2.1
		c-1.2-1.4-1.8-3.5-1.8-6.3v-42.8H304V498c0,1.1,0.2,1.9,0.5,2.3c0.3,0.4,0.9,0.6,1.6,0.6c0.7,0,1.2-0.2,1.5-0.7s0.4-1.2,0.4-2.3
		v-39.1H319.2z"/>
	<path d="M322.7,509.2v-50.4h10.9v4.2h0.2c0.9-1.8,2.1-3.1,3.4-3.9c1.3-0.8,2.8-1.3,4.6-1.3c2.4,0,4.2,0.7,5.4,2.2
		c1.2,1.4,1.8,3.6,1.8,6.4v42.7h-11.2v-39c0-1.2-0.1-2-0.4-2.4s-0.8-0.6-1.6-0.6c-0.7,0-1.2,0.2-1.5,0.7c-0.3,0.5-0.5,1.2-0.5,2.3
		v39H322.7z"/>
	<path d="M352.5,509.2v-62.9h11.1v34.5h0.2l4.7-21.9h11.4l-5.5,21.8l5.5,28.6h-11.7l-4.4-26.4h-0.2v26.4H352.5z"/>
	<path d="M382,509.2v-12.8h11.6v12.8H382z"/>
	<path d="M397.9,509.2v-50.4h10.9v4.2h0.2c0.9-1.8,2.1-3.1,3.4-3.9c1.3-0.8,2.8-1.3,4.6-1.3c2.4,0,4.2,0.7,5.4,2.2
		c1.2,1.4,1.8,3.6,1.8,6.4v42.7H413v-39c0-1.2-0.1-2-0.4-2.4c-0.3-0.4-0.8-0.6-1.6-0.6c-0.7,0-1.2,0.2-1.5,0.7
		c-0.3,0.5-0.5,1.2-0.5,2.3v39H397.9z"/>
	<path d="M438.7,499.1c0,1.1,0.2,1.9,0.5,2.4s0.8,0.7,1.5,0.7c0.7,0,1.2-0.2,1.5-0.7c0.3-0.5,0.5-1.3,0.5-2.4v-9.4h11.1v9.3
		c0,3.6-1.1,6.5-3.4,8.5c-2.3,2-5.5,3-9.7,3c-4.7,0-8.1-1.1-10.1-3.2c-2-2.2-3-5.9-3-11.1V472c0-5.3,1-9,3-11.1
		c2-2.1,5.3-3.2,10-3.2c4.1,0,7.4,1,9.7,2.9c2.3,1.9,3.5,4.6,3.5,8v17.1h-15.1V499.1z M438.7,468.6v9.5h4v-9.5
		c0-1.1-0.2-1.9-0.5-2.4c-0.3-0.5-0.8-0.7-1.5-0.7c-0.7,0-1.2,0.2-1.5,0.7S438.7,467.5,438.7,468.6z"/>
	<path d="M455.5,466.9v-8.1h2.8v-9.3h11.2v9.3h3.2v8.1h-3.2v30.6c0,1.6,0.2,2.6,0.6,3c0.4,0.4,1.1,0.6,2.3,0.6h0.4v8.1h-7
		c-2.7,0-4.6-0.6-5.7-1.9c-1.1-1.2-1.7-3.6-1.7-7v-33.5H455.5z"/>
</g>
</svg>
